<?xml version="1.0" encoding="UTF-8"?> <svg xmlns="http://www.w3.org/2000/svg" width="248" height="56" viewBox="0 0 248 56" fill="none"><path fillRule="evenodd" clipRule="evenodd" d="M2.43908 16.5806C0.0571883 13.8717 -0.643385 10.042 0.61763 6.63264C3.23308 -1.07359 16.4504 -4.29619 20.5137 9.48155C22.6621 16.7675 19.1125 24.5671 14.1619 30.6386C11.4063 33.9547 7.06284 37.5509 1.64518 38.9987C1.36491 39.0921 0.991318 38.952 0.851184 38.6718C0.711051 38.3449 0.804474 37.9713 1.13136 37.8311C4.4941 35.7761 6.64253 33.7678 8.37056 29.8913C10.4256 25.1743 9.81842 20.4571 7.43653 19.7098C5.52165 19.1494 3.79352 18.0752 2.43908 16.5806ZM37.8408 31.4319C37.8408 36.0232 34.1189 39.7453 29.5275 39.7453C24.9361 39.7453 21.2141 36.0232 21.2141 31.4319C21.2141 26.8405 24.9361 23.1185 29.5275 23.1185C34.1189 23.1185 37.8408 26.8405 37.8408 31.4319Z" fill="white"></path><path d="M41.1662 23.1979C40.7069 23.1979 40.2751 23.1124 39.8709 22.9411C39.4668 22.7637 39.1146 22.5252 38.8146 22.2256C38.5145 21.9259 38.2757 21.5742 38.0981 21.1706C37.9266 20.767 37.8408 20.3359 37.8408 19.8772C37.8408 19.4185 37.9266 18.9874 38.0981 18.5837C38.2757 18.1801 38.5145 17.8285 38.8146 17.5288C39.1146 17.223 39.4668 16.9845 39.8709 16.8132C40.2751 16.6359 40.7069 16.5472 41.1662 16.5472C41.6255 16.5472 42.0572 16.6359 42.4614 16.8132C42.8656 16.9845 43.2177 17.223 43.5179 17.5288C43.8179 17.8285 44.0537 18.1801 44.2251 18.5837C44.4028 18.9874 44.4915 19.4185 44.4915 19.8772C44.4915 20.3359 44.4028 20.767 44.2251 21.1706C44.0537 21.5742 43.8179 21.9259 43.5179 22.2256C43.2177 22.5252 42.8656 22.7637 42.4614 22.9411C42.0572 23.1124 41.6255 23.1979 41.1662 23.1979ZM41.1662 17.006C40.7743 17.006 40.4007 17.0823 40.0455 17.2352C39.6964 17.382 39.3933 17.5869 39.1361 17.8498C38.8789 18.1067 38.6737 18.4094 38.5206 18.758C38.3675 19.1067 38.291 19.4797 38.291 19.8772C38.291 20.2686 38.3675 20.6386 38.5206 20.9871C38.6737 21.3357 38.8789 21.6416 39.1361 21.9045C39.3933 22.1613 39.6964 22.3663 40.0455 22.5191C40.4007 22.6659 40.7743 22.7393 41.1662 22.7393C41.5581 22.7393 41.9287 22.6659 42.2777 22.5191C42.6329 22.3663 42.9391 22.1613 43.1963 21.9045C43.4535 21.6416 43.6586 21.3357 43.8118 20.9871C43.9649 20.6386 44.0415 20.2686 44.0415 19.8772C44.0415 19.4797 43.9649 19.1067 43.8118 18.758C43.6586 18.4094 43.4535 18.1067 43.1963 17.8498C42.9391 17.5869 42.6329 17.382 42.2777 17.2352C41.9287 17.0823 41.5581 17.006 41.1662 17.006ZM42.4155 19.5103C42.3543 19.6876 42.2563 19.8374 42.1216 19.9598C41.9868 20.0759 41.8154 20.1555 41.6072 20.1983C41.5765 20.2044 41.5428 20.2105 41.5061 20.2166C41.4754 20.2166 41.4387 20.2196 41.3958 20.2258L42.3421 21.7027C42.3481 21.7149 42.3512 21.7271 42.3512 21.7394C42.3574 21.7516 42.3574 21.7639 42.3512 21.7761C42.345 21.7945 42.3328 21.8098 42.3145 21.822C42.3022 21.828 42.2961 21.8311 42.2961 21.8311L42.2777 21.8403H42.0114C41.9562 21.8403 41.9134 21.8311 41.8827 21.8127C41.8583 21.7883 41.8429 21.773 41.8368 21.7669L40.8631 20.2258H40.3394V21.7302C40.3394 21.7547 40.3272 21.7792 40.3027 21.8036C40.2782 21.828 40.2538 21.8403 40.2292 21.8403H39.9629C39.9322 21.8403 39.9047 21.828 39.8802 21.8036C39.8618 21.7792 39.8526 21.7547 39.8526 21.7302V18.0242C39.8526 17.9936 39.8618 17.9691 39.8802 17.9508C39.9047 17.9263 39.9322 17.9141 39.9629 17.9141H41.3316C41.4479 17.9141 41.5581 17.9294 41.6623 17.9599C41.7663 17.9844 41.8643 18.0242 41.9562 18.0792C42.097 18.1587 42.2103 18.2627 42.2961 18.3911C42.3818 18.5134 42.437 18.6572 42.4614 18.8223C42.4798 18.9445 42.4828 19.0638 42.4706 19.18C42.4645 19.2962 42.4461 19.4063 42.4155 19.5103ZM40.3394 19.7854H40.6334C40.7498 19.7854 40.8631 19.7854 40.9733 19.7854C41.0896 19.7854 41.206 19.7824 41.3223 19.7763C41.4754 19.7701 41.6072 19.7273 41.7174 19.6479C41.8337 19.5684 41.9103 19.4613 41.947 19.3268C41.9592 19.284 41.9685 19.2381 41.9746 19.1892C41.9807 19.1342 41.9838 19.0761 41.9838 19.0149C41.9776 18.9048 41.9562 18.81 41.9194 18.7305C41.8827 18.6449 41.8245 18.5715 41.7449 18.5103C41.6837 18.4615 41.6102 18.4247 41.5245 18.4003C41.4449 18.3758 41.3561 18.3636 41.2581 18.3636C41.1968 18.3575 41.1294 18.3544 41.056 18.3544C40.9887 18.3544 40.9212 18.3544 40.8539 18.3544H40.3394V19.7854Z" fill="white"></path><path fillRule="evenodd" clipRule="evenodd" d="M207.611 3.05176e-05H214.196C214.57 3.05176e-05 214.85 0.280204 214.85 0.653894L214.99 38.6245C214.99 38.9982 214.663 39.2783 214.29 39.2783H207.704C207.331 39.2783 207.05 38.9982 207.05 38.6245L206.957 36.6629C204.762 38.7179 201.913 39.8855 198.924 39.8855C191.965 39.8855 186.314 33.6271 186.314 25.9209C186.314 18.2147 191.965 11.9563 198.924 11.9563C201.492 11.9563 204.015 12.8437 206.069 14.4316C207.378 15.4591 209.386 17.3274 209.386 17.3274C206.864 14.9454 206.91 12.7503 206.91 12.7503V0.653894C206.957 0.280204 207.237 3.05176e-05 207.611 3.05176e-05ZM193.599 25.6407C193.599 29.3304 196.588 32.3661 200.325 32.3661C204.015 32.3661 207.05 29.3304 207.05 25.6407C207.05 21.951 204.061 18.9153 200.325 18.9153C196.635 18.9153 193.599 21.951 193.599 25.6407ZM86.5998 39.3251H79.4076C79.0337 39.3251 78.754 39.045 78.754 38.6713V12.8905C78.754 12.5169 79.0337 12.2367 79.4076 12.2367H86.5998C86.9737 12.2367 87.2543 12.5169 87.2543 12.8905V38.6713C87.2543 39.045 86.9737 39.3251 86.5998 39.3251ZM97.4823 17.3742C97.4823 17.3742 99.8179 15.8797 99.8179 13.1708V12.8438C99.8179 12.4702 99.5372 12.19 99.1633 12.19H92.5315C92.1585 12.19 91.8779 12.4702 91.8779 12.8438V38.6247C91.8779 38.9983 92.1585 39.2785 92.5315 39.2785H99.2109C99.5838 39.2785 99.8645 38.9983 99.8645 38.6247V23.7259C99.8179 20.6902 102.106 18.0747 105.142 17.7478C108.365 17.4209 111.213 19.8029 111.494 23.0255C111.494 23.1255 111.507 23.2256 111.52 23.3186V23.3187C111.53 23.3992 111.54 23.4742 111.54 23.5392V34.7949C111.54 38.8582 114.81 42.1275 118.873 42.1275C119.246 42.1275 119.527 41.8473 119.527 41.4737V24.0996C119.76 20.41 119.06 16.1131 116.024 13.6378C113.128 11.3026 109.299 10.7422 105.702 11.2559C102.2 11.7697 100.051 14.8054 100.051 14.8054C100.051 14.8054 98.3699 17.0006 97.4823 17.3742ZM60.0722 31.2464H74.0368C74.3636 31.2464 74.6439 31.5267 74.6439 31.8536V38.6725C74.6439 39.0461 74.3637 39.3264 73.99 39.3264H52.1791C51.8522 39.3264 51.5252 39.0461 51.5252 38.6725V0.748528C51.5252 0.374839 51.8055 0.0479545 52.1791 0.0479545H59.4183C59.7919 0.0479545 60.0722 0.374839 60.0722 0.748528V31.2464ZM169.64 11.5358C161.841 11.5358 155.489 17.8876 155.489 25.6873C155.489 33.4869 161.841 39.8387 169.64 39.8387C177.44 39.8387 183.792 33.4869 183.792 25.6873C183.792 17.8876 177.44 11.5358 169.64 11.5358ZM169.64 32.366C165.951 32.366 162.915 29.3769 162.915 25.6405C162.915 21.9509 165.904 18.9152 169.64 18.9152C173.331 18.9152 176.366 21.9042 176.366 25.6405C176.366 29.3303 173.331 32.366 169.64 32.366ZM151.567 12.4232C151.939 12.4232 152.22 12.7035 152.22 13.0771L152.313 40.913C152.313 49.2263 145.542 55.9984 137.228 55.9984H135.687C132.558 56.0451 129.522 55.0644 127 53.2429C124.898 51.7951 123.263 49.8335 122.142 47.5917C121.956 47.2647 122.096 46.8911 122.423 46.7043L122.563 46.5642C125.271 45.2097 128.541 45.49 131.016 47.2647C132.324 48.1522 133.818 48.6659 135.407 48.6659H136.061C140.31 48.6659 143.766 45.2564 143.766 41.0064V36.2425L143.206 36.8496C143.136 36.9197 143.066 36.9781 142.996 37.0365C142.925 37.0948 142.856 37.1532 142.786 37.2233C137.929 41.38 130.596 40.8195 126.439 35.9623C121.582 30.3577 121.582 21.9976 126.439 16.3931C128.681 13.8244 131.856 12.3765 135.266 12.3298C137.835 12.3765 140.31 13.2172 142.318 14.7585C143.627 15.6926 145.775 17.6074 145.775 17.6074C143.58 15.5991 143.346 13.731 143.299 13.2172V13.0771C143.299 12.7035 143.58 12.4232 143.953 12.4232H151.567ZM129.942 26.8082C130.409 30.4979 133.772 33.0666 137.462 32.5996C140.498 32.2259 142.879 29.844 143.253 26.8082C143.346 26.2478 143.346 25.6406 143.253 25.0802C142.786 21.3905 139.423 18.8217 135.733 19.2889C132.044 19.7559 129.475 23.1186 129.942 26.8082ZM246.842 12.3768L239.276 12.3301C238.903 12.3301 238.623 12.6103 238.623 12.984V13.2641C238.669 13.7779 238.903 15.3191 241.098 17.3742C241.098 17.3742 238.997 15.4593 237.782 14.5252C237.735 14.4785 237.689 14.4435 237.642 14.4085V14.4084C237.595 14.3734 237.549 14.3384 237.502 14.2917C235.494 12.8438 233.112 12.0498 230.636 12.0498C223.725 12.0498 218.073 18.2616 218.073 25.9211C218.073 33.5806 223.678 39.839 230.636 39.839C233.625 39.839 236.475 38.6714 238.669 36.6164L238.716 38.6247C238.716 38.9983 238.997 39.2785 239.37 39.2785H246.749C247.123 39.3252 247.45 39.045 247.497 38.6714V38.5779L247.45 12.9373C247.439 12.959 247.435 12.9376 247.429 12.8927C247.406 12.7447 247.344 12.3409 246.842 12.3768ZM231.664 32.3196C227.974 32.3196 224.939 29.3304 224.939 25.5941C224.939 21.8578 227.928 18.8687 231.664 18.8687C235.354 18.8687 238.39 21.8578 238.39 25.5941C238.39 29.3304 235.401 32.3196 231.664 32.3196ZM87.4874 4.48365C87.4874 6.95981 85.4801 8.96727 83.0037 8.96727C80.5283 8.96727 78.5209 6.95981 78.5209 4.48365C78.5209 2.0074 80.5283 3.05176e-05 83.0037 3.05176e-05C85.4801 3.05176e-05 87.4874 2.0074 87.4874 4.48365Z" fill="white"></path></svg> 