<?xml version="1.0" encoding="UTF-8"?> <svg xmlns="http://www.w3.org/2000/svg" width="150" height="66" viewBox="0 0 150 66" fill="none"><path d="M6.14844 16.8037H14.3484L19.1179 29.0027L23.9425 16.8037H31.9223L19.9067 45.6961H11.8719L15.1555 38.0465L6.14844 16.8037Z" fill="white"></path><path d="M40.2324 16.3271C34.0687 16.3271 30.1797 21.8488 30.1797 27.3521C30.1797 33.5342 34.4539 38.4505 40.104 38.4505C44.3232 38.4505 45.9192 35.8822 45.9192 35.8822V37.8818H53.0735V16.8041H45.9192V18.7119C45.9375 18.7303 44.1581 16.3271 40.2324 16.3271ZM41.755 23.0962C44.5984 23.0962 46.0659 25.3526 46.0659 27.3705C46.0659 29.5534 44.4883 31.6997 41.755 31.6997C39.4803 31.6997 37.4441 29.8469 37.4441 27.4622C37.4441 25.0407 39.0951 23.0962 41.755 23.0962Z" fill="white"></path><path d="M55.5547 37.8641V7.52246H63.0208V18.8042C63.0208 18.8042 64.8003 16.3278 68.5058 16.3278C73.0552 16.3278 75.7152 19.7215 75.7152 24.5644V37.8641H68.304V26.3805C68.304 24.7478 67.5152 23.1519 65.7542 23.1519C63.9564 23.1519 63.0208 24.7662 63.0208 26.3805V37.8641H55.5547Z" fill="white"></path><path d="M88.456 16.3271C81.4118 16.3271 77.2109 21.6837 77.2109 27.4255C77.2109 33.9561 82.2923 38.4321 88.4927 38.4321C94.4913 38.4321 99.7378 34.1762 99.7378 27.5356C99.7378 20.2895 94.2345 16.3271 88.456 16.3271ZM88.5294 23.1513C91.0243 23.1513 92.7486 25.2242 92.7486 27.4438C92.7486 29.3333 91.1343 31.663 88.5294 31.663C86.1446 31.663 84.3469 29.7552 84.3469 27.4255C84.3469 25.1875 85.8328 23.1513 88.5294 23.1513Z" fill="white"></path><path d="M112.198 16.3271C105.154 16.3271 100.953 21.6837 100.953 27.4255C100.953 33.9561 106.035 38.4321 112.235 38.4321C118.234 38.4321 123.48 34.1762 123.48 27.5356C123.48 20.2895 117.977 16.3271 112.198 16.3271ZM112.253 23.1513C114.748 23.1513 116.472 25.2242 116.472 27.4438C116.472 29.3333 114.858 31.663 112.253 31.663C109.868 31.663 108.071 29.7552 108.071 27.4255C108.089 25.1875 109.575 23.1513 112.253 23.1513Z" fill="white"></path><path d="M129.37 38.3245C132.115 38.3245 134.341 36.0987 134.341 33.3532C134.341 30.6076 132.115 28.3818 129.37 28.3818C126.624 28.3818 124.398 30.6076 124.398 33.3532C124.398 36.0987 126.624 38.3245 129.37 38.3245Z" fill="white"></path><path d="M135.973 26.5639H127.039L134.964 7.52246H143.861L135.973 26.5639Z" fill="white"></path><path d="M100.406 46.5591C101.855 46.5591 103.268 46.5591 104.736 46.5591C105.139 48.522 105.561 50.4848 105.965 52.4477C106.001 52.4477 106.02 52.4477 106.056 52.4477C106.588 50.4848 107.139 48.522 107.689 46.5225C108.661 46.5225 109.597 46.5408 110.551 46.5225C110.844 46.5225 110.844 46.7243 110.899 46.9077C111.376 48.6321 111.835 50.3564 112.312 52.0808C112.348 52.2092 112.385 52.3376 112.495 52.466C112.862 50.5032 113.229 48.522 113.578 46.5591C115.027 46.5591 116.458 46.5591 117.907 46.5591C117.485 48.0267 117.063 49.4759 116.641 50.9251C116.036 53.0164 115.412 55.1076 114.825 57.2172C114.733 57.5474 114.605 57.6575 114.275 57.6391C113.174 57.6208 112.073 57.6208 110.973 57.6391C110.642 57.6391 110.496 57.5474 110.422 57.2172C110.074 55.8047 109.689 54.4105 109.322 53.0164C109.285 52.8696 109.248 52.7229 109.157 52.466C108.68 54.2454 108.239 55.9331 107.799 57.6208C106.405 57.6208 105.029 57.6208 103.617 57.6208C102.553 53.9336 101.489 50.2647 100.406 46.5591Z" fill="white"></path><path d="M80.299 57.6041C78.9048 57.6041 77.5657 57.6041 76.2266 57.6041C76.2266 53.9169 76.2266 50.2663 76.2266 46.5608C77.5657 46.5608 78.9048 46.5608 80.2807 46.5608C80.299 46.8359 80.3174 47.1111 80.3357 47.4597C80.4274 47.3863 80.4825 47.3496 80.5375 47.2946C81.895 45.9371 84.1146 45.7536 85.6556 46.9093C86.7562 47.7348 87.2148 48.9455 87.2699 50.2297C87.3616 52.6695 87.2882 55.1093 87.2882 57.6041C85.9307 57.6041 84.5916 57.6041 83.1974 57.6041C83.1974 57.439 83.1974 57.2739 83.1974 57.1271C83.1974 55.4578 83.1974 53.7885 83.1974 52.1375C83.1974 51.9724 83.1974 51.8073 83.1791 51.6422C83.1424 50.6699 82.7021 50.2297 81.8216 50.2113C80.9594 50.193 80.354 50.7616 80.3174 51.6605C80.2807 52.5227 80.299 53.3665 80.299 54.2287C80.299 55.311 80.299 56.4484 80.299 57.6041Z" fill="white"></path><path d="M99.9219 53.4555C97.4637 53.4555 95.0606 53.4555 92.6391 53.4555C92.9326 54.5012 94.9138 55.1616 96.7299 53.8774C97.6105 54.6112 98.491 55.3633 99.3899 56.1338C98.4726 57.051 97.4087 57.638 96.1796 57.8215C94.6754 58.0416 93.1895 58.0233 91.777 57.3629C89.5389 56.3356 88.3282 54.3544 88.4016 51.8229C88.4933 48.9245 90.5479 46.6314 93.4279 46.2279C97.2619 45.6959 100.27 48.5026 100.05 52.3916C100.032 52.7401 99.9769 53.0886 99.9219 53.4555ZM96.198 50.8139C96.0329 50.0435 95.4091 49.5482 94.657 49.5298C93.5013 49.5115 92.7675 49.9518 92.5474 50.8139C93.7581 50.8139 94.9689 50.8139 96.198 50.8139Z" fill="white"></path><path d="M118.016 55.2913C119.19 54.7593 120.345 54.2457 121.538 53.7137C121.868 54.4108 122.345 54.8511 123.152 54.8144C123.464 54.796 123.812 54.7777 123.867 54.3925C123.923 53.9889 123.574 53.9522 123.299 53.8788C122.4 53.622 121.483 53.4385 120.621 53.1083C118.346 52.2645 117.759 49.2927 119.483 47.5867C121.189 45.899 125.188 45.4954 127.041 47.6784C127.39 48.082 127.646 48.5406 127.995 49.0176C126.803 49.4578 125.72 49.8431 124.638 50.2466C124.491 50.0632 124.381 49.8614 124.216 49.6963C123.886 49.3478 123.446 49.2377 123.005 49.3661C122.84 49.4028 122.638 49.5862 122.62 49.733C122.602 49.8614 122.785 50.0999 122.932 50.1549C123.299 50.3017 123.702 50.3384 124.088 50.4484C124.895 50.6869 125.72 50.9254 126.527 51.2189C127.114 51.439 127.518 51.916 127.793 52.4846C128.747 54.4291 127.977 56.5754 125.977 57.3826C123.923 58.2081 121.85 58.1531 119.85 57.2175C118.951 56.8506 118.346 56.1352 118.016 55.2913Z" fill="white"></path></svg> 