<?xml version="1.0" encoding="UTF-8"?> <svg xmlns="http://www.w3.org/2000/svg" width="150" height="66" viewBox="0 0 150 66" fill="none"><g clip-path="url(#clip0_2098_20027)"><path d="M24.2218 36.081C24.2218 35.1019 24.2218 34.1628 24.2218 33.1888C25.8402 33.1888 27.4437 33.1888 29.0521 33.1888C29.0521 32.7292 29.0521 32.2996 29.0521 31.8401C27.4337 31.8401 25.8302 31.8401 24.2218 31.8401C24.2218 30.811 24.2218 29.817 24.2218 28.798C26.1249 28.798 28.0081 28.798 29.9013 28.798C29.9013 28.3284 29.9013 27.8839 29.9013 27.4393C27.5286 27.4393 25.1759 27.4393 22.8281 27.4393C22.8281 30.7861 22.8281 34.1129 22.8281 37.4347C25.2008 37.4347 27.5536 37.4347 29.9013 37.4347C29.9013 36.9751 29.9013 36.5405 29.9013 36.086C28.0081 36.081 26.1299 36.081 24.2218 36.081ZM80.9921 31.7701C79.6234 31.7701 78.2697 31.7701 76.896 31.7701C76.896 30.2816 76.896 28.828 76.896 27.3594C76.4265 27.3594 75.9819 27.3594 75.5124 27.3594C75.5124 28.838 75.5124 30.3015 75.5124 31.8001C74.1337 31.8001 72.78 31.8001 71.4213 31.8001C71.4213 32.2646 71.4213 32.6942 71.4213 33.1588C71.5362 33.1588 71.6461 33.1588 71.751 33.1588C72.9099 33.1588 74.0738 33.1638 75.2326 33.1538C75.4524 33.1538 75.5224 33.2137 75.5224 33.4385C75.5124 34.7073 75.5174 35.9761 75.5174 37.2449C75.5174 37.3398 75.5274 37.4347 75.5323 37.5346C75.9969 37.5346 76.4315 37.5346 76.906 37.5346C76.906 36.071 76.906 34.6174 76.906 33.1388C78.2897 33.1388 79.6334 33.1388 80.9921 33.1388C80.9921 32.6743 80.9921 32.2397 80.9921 31.7701ZM55.2968 27.4293C55.2968 30.7761 55.2968 34.1079 55.2968 37.4347C57.5647 37.4347 59.8075 37.4347 62.0603 37.4347C62.0603 36.9801 62.0603 36.5405 62.0603 36.071C60.2621 36.071 58.4788 36.071 56.6655 36.071C56.6655 33.1738 56.6655 30.3065 56.6655 27.4293C56.201 27.4293 55.7564 27.4293 55.2968 27.4293ZM46.1706 36.066C44.3674 36.066 42.5741 36.066 40.7559 36.066C40.7559 33.1638 40.7559 30.3015 40.7559 27.4343C40.2863 27.4343 39.8417 27.4343 39.4022 27.4343C39.4022 30.7811 39.4022 34.1079 39.4022 37.4347C41.665 37.4347 43.9128 37.4347 46.1706 37.4347C46.1706 36.9851 46.1706 36.5455 46.1706 36.066Z" fill="white"></path><path d="M0 27.4023C0.379634 27.4073 0.759269 27.4323 1.13391 27.4023C1.41364 27.3823 1.51354 27.4922 1.59346 27.747C2.30278 30.0198 3.02708 32.2876 3.75139 34.5554C3.78635 34.6603 3.82631 34.7702 3.88126 34.9301C3.96618 34.6853 4.03611 34.4955 4.10105 34.3007C4.83035 32.0978 5.55465 29.8999 6.27396 27.697C6.34888 27.4723 6.44879 27.3774 6.68856 27.4023C6.89336 27.4273 7.10316 27.4223 7.30796 27.4023C7.51276 27.3823 7.5827 27.4723 7.64264 27.6521C8.40191 29.9749 9.17616 32.2926 9.94042 34.6104C9.9704 34.6953 10.0004 34.7752 10.0553 34.9301C10.1852 34.5355 10.2951 34.2008 10.4 33.8661C11.0593 31.8031 11.7187 29.7401 12.3681 27.6771C12.433 27.4723 12.5179 27.3873 12.7427 27.4023C13.1274 27.4223 13.517 27.4073 13.9416 27.4073C13.7667 27.9568 13.6019 28.4813 13.4321 29.0108C12.5579 31.7282 11.6787 34.4455 10.8146 37.1679C10.7446 37.3877 10.6497 37.4726 10.425 37.4526C10.2002 37.4327 9.97539 37.4277 9.75061 37.4526C9.50085 37.4776 9.41593 37.3727 9.346 37.1479C8.60171 34.8701 7.84244 32.5923 7.08817 30.3145C7.0632 30.2296 7.02823 30.1497 6.97328 30.0048C6.91834 30.1647 6.87837 30.2646 6.84341 30.3695C6.09413 32.6373 5.34485 34.9051 4.60057 37.1779C4.53064 37.3877 4.44572 37.4676 4.22593 37.4477C3.96618 37.4277 3.70143 37.4327 3.44168 37.4477C3.27684 37.4576 3.21191 37.3977 3.16195 37.2379C2.50259 35.1898 1.84322 33.1418 1.18386 31.0888C0.814216 29.9449 0.444572 28.796 0.0699326 27.6521C0.0549471 27.6021 0.0249759 27.5572 0 27.5122C0 27.4723 0 27.4373 0 27.4023Z" fill="white"></path><path d="M95.3467 27.2422C95.5815 27.2971 95.8163 27.3421 96.046 27.407C97.3548 27.7517 98.3688 28.506 99.1431 29.6399C98.7684 29.8996 98.4038 30.1594 98.0141 30.4291C97.8943 30.2793 97.7794 30.1344 97.6645 29.9945C96.7004 28.8357 95.097 28.3511 93.6633 28.7907C92.1798 29.2453 91.1158 30.529 90.9609 32.0376C90.7861 33.7409 91.7402 35.3244 93.3337 35.9738C94.8971 36.6132 96.6704 36.1336 97.7294 34.7999C97.8793 34.6101 97.9742 34.4153 97.9542 34.1605C97.9342 33.8758 97.9492 33.5911 97.9492 33.2714C96.8003 33.2714 95.6814 33.2714 94.5425 33.2714C94.5425 32.8318 94.5425 32.4222 94.5425 31.9926C96.116 31.9926 97.6845 31.9926 99.2729 31.9926C99.2729 33.8009 99.2729 35.6041 99.2729 37.4324C98.8633 37.4324 98.4487 37.4324 97.9992 37.4324C97.9992 37.1277 97.9992 36.808 97.9992 36.4433C97.8993 36.5083 97.8393 36.5382 97.7894 36.5832C97.135 37.1077 96.4007 37.4374 95.5765 37.5722C95.5365 37.5772 95.4966 37.6072 95.4566 37.6222C94.9871 37.6222 94.5225 37.6222 94.053 37.6222C93.5085 37.4474 92.939 37.3275 92.4295 37.0827C90.4314 36.1186 89.2576 33.9807 89.5972 31.7179C89.9519 29.3751 91.7152 27.6318 93.993 27.3021C94.053 27.2921 94.1079 27.2672 94.1629 27.2472C94.5525 27.2422 94.9471 27.2422 95.3467 27.2422Z" fill="white"></path><path d="M149.902 33.2943C149.852 33.5091 149.797 33.7239 149.747 33.9387C149.252 36.0567 147.639 37.3954 145.471 37.4453C144.102 37.4753 142.734 37.4503 141.37 37.4503C141.335 37.4503 141.3 37.4403 141.25 37.4353C141.25 34.0986 141.25 30.7668 141.25 27.41C141.455 27.41 141.645 27.41 141.829 27.41C143.123 27.42 144.422 27.375 145.716 27.455C147.854 27.5898 149.387 29.0135 149.792 31.1214C149.822 31.2863 149.867 31.4511 149.902 31.6159C149.902 32.1754 149.902 32.7349 149.902 33.2943ZM142.634 36.0517C143.663 36.0517 144.662 36.1016 145.656 36.0367C146.825 35.9618 147.674 35.3324 148.168 34.2634C148.548 33.4392 148.628 32.565 148.483 31.6759C148.178 29.8027 146.989 28.7987 145.101 28.7987C144.382 28.7987 143.663 28.7987 142.938 28.7987C142.843 28.7987 142.744 28.7987 142.634 28.7987C142.634 31.2413 142.634 33.649 142.634 36.0517Z" fill="white"></path><path d="M112.037 27.2422C112.382 27.3321 112.731 27.397 113.071 27.5069C115.384 28.2662 116.812 30.4491 116.628 32.9317C116.458 35.2195 114.634 37.1676 112.297 37.5622C112.247 37.5722 112.197 37.5972 112.147 37.6122C111.677 37.6122 111.213 37.6122 110.743 37.6122C110.274 37.4723 109.784 37.3724 109.335 37.1826C107.182 36.2535 105.953 34.0356 106.268 31.7079C106.572 29.4401 108.405 27.6168 110.703 27.2921C110.753 27.2871 110.798 27.2572 110.848 27.2422C111.248 27.2422 111.642 27.2422 112.037 27.2422ZM115.249 32.4422C115.254 30.3592 113.526 28.6259 111.438 28.6209C109.355 28.6159 107.616 30.3492 107.611 32.4322C107.611 34.5152 109.335 36.2435 111.428 36.2535C113.511 36.2635 115.244 34.5302 115.249 32.4422Z" fill="white"></path><path d="M127.917 37.6122C127.343 37.4224 126.738 37.2925 126.199 37.0278C124.231 36.0637 123.122 33.8658 123.447 31.6679C123.761 29.525 125.45 27.7517 127.568 27.3471C127.723 27.3171 127.877 27.2772 128.032 27.2422C128.427 27.2422 128.826 27.2422 129.221 27.2422C129.426 27.2921 129.631 27.3371 129.84 27.387C132.253 27.9715 133.907 30.1444 133.822 32.607C133.737 35.0896 131.938 37.1377 129.476 37.5573C129.426 37.5672 129.376 37.5922 129.331 37.6072C128.856 37.6122 128.387 37.6122 127.917 37.6122ZM132.423 32.4522C132.443 30.3792 130.73 28.6508 128.622 28.6209C126.569 28.5909 124.8 30.3342 124.785 32.3922C124.77 34.4902 126.489 36.2335 128.592 36.2535C130.675 36.2685 132.408 34.5501 132.423 32.4522Z" fill="white"></path><path d="M24.2168 36.0764C26.1249 36.0764 28.0031 36.0764 29.9013 36.0764C29.9013 36.5359 29.9013 36.9705 29.9013 37.4251C27.5486 37.4251 25.1958 37.4251 22.8281 37.4251C22.8281 34.1033 22.8281 30.7765 22.8281 27.4297C25.1809 27.4297 27.5286 27.4297 29.9013 27.4297C29.9013 27.8743 29.9013 28.3188 29.9013 28.7884C28.0031 28.7884 26.12 28.7884 24.2218 28.7884C24.2218 29.8124 24.2218 30.8064 24.2218 31.8304C25.8302 31.8304 27.4337 31.8304 29.0521 31.8304C29.0521 32.29 29.0521 32.7196 29.0521 33.1791C27.4437 33.1791 25.8402 33.1791 24.2218 33.1791C24.2168 34.1582 24.2168 35.0973 24.2168 36.0764Z" fill="white"></path><path d="M80.9927 31.7651C80.9927 32.2347 80.9927 32.6693 80.9927 33.1388C79.634 33.1388 78.2903 33.1388 76.9066 33.1388C76.9066 34.6174 76.9066 36.071 76.9066 37.5346C76.4321 37.5346 75.9975 37.5346 75.5329 37.5346C75.5279 37.4347 75.5179 37.3398 75.5179 37.2449C75.5179 35.9761 75.5129 34.7073 75.5229 33.4385C75.5229 33.2137 75.458 33.1488 75.2332 33.1538C74.0743 33.1638 72.9104 33.1588 71.7516 33.1588C71.6467 33.1588 71.5418 33.1588 71.4219 33.1588C71.4219 32.6942 71.4219 32.2646 71.4219 31.8001C72.7806 31.8001 74.1293 31.8001 75.5129 31.8001C75.5129 30.3015 75.5129 28.838 75.5129 27.3594C75.9875 27.3594 76.4321 27.3594 76.8966 27.3594C76.8966 28.823 76.8966 30.2816 76.8966 31.7701C78.2753 31.7651 79.624 31.7651 80.9927 31.7651Z" fill="white"></path><path d="M55.2969 27.4297C55.7514 27.4297 56.196 27.4297 56.6706 27.4297C56.6706 30.3069 56.6706 33.1742 56.6706 36.0714C58.4838 36.0714 60.2671 36.0714 62.0654 36.0714C62.0654 36.5409 62.0654 36.9805 62.0654 37.435C59.8125 37.435 57.5647 37.435 55.3019 37.435C55.2969 34.1083 55.2969 30.7765 55.2969 27.4297Z" fill="white"></path><path d="M46.1669 36.0614C46.1669 36.5409 46.1669 36.9805 46.1669 37.4301C43.9091 37.4301 41.6613 37.4301 39.3984 37.4301C39.3984 34.1033 39.3984 30.7765 39.3984 27.4297C39.838 27.4297 40.2826 27.4297 40.7521 27.4297C40.7521 30.2969 40.7521 33.1592 40.7521 36.0614C42.5704 36.0614 44.3637 36.0614 46.1669 36.0614Z" fill="white"></path></g><defs><clipPath id="clip0_2098_20027"><rect width="149.906" height="10.38" fill="white" transform="translate(0 27.5723)"></rect></clipPath></defs></svg> 