<?xml version="1.0" encoding="UTF-8"?> <svg xmlns="http://www.w3.org/2000/svg" width="151" height="66" viewBox="0 0 151 66" fill="none"><path d="M32.7308 43.8879V53.1737H29.2951V43.8879H25.8594V40.9165H36.1665V43.8879H32.7308ZM44.1522 49.4594H38.7665C38.7665 50.2951 39.4165 50.9451 40.1594 50.9451C40.2522 50.9451 40.2522 50.9451 40.3451 50.9451C41.1808 50.9451 42.0165 50.7594 42.7594 50.2951L43.9665 52.3379C42.8522 52.9879 41.5522 53.3594 40.2522 53.3594C37.4665 53.3594 35.9808 51.4094 35.9808 48.5308C35.9808 45.3737 37.7451 43.7022 40.1594 43.7022C42.5737 43.7022 44.2451 45.3737 44.2451 48.8094C44.1522 49.0879 44.1522 49.2737 44.1522 49.4594ZM39.9737 46.1165C39.2308 46.1165 38.8594 46.5808 38.7665 47.5094H41.3665C41.1808 46.5808 40.9022 46.1165 39.9737 46.1165ZM50.0022 53.3594C47.3094 53.3594 45.7308 51.6879 45.7308 48.5308C45.7308 45.7451 47.1237 43.7951 50.0951 43.7951C51.5808 43.7022 52.9737 44.5379 53.6237 45.8379L51.4879 47.5094C51.0237 46.6737 50.7451 46.3022 50.0951 46.3022C49.4451 46.3022 48.8879 47.1379 48.8879 48.5308C48.8879 49.9237 49.3522 50.7594 50.1879 50.7594C50.7451 50.7594 51.2094 50.3879 51.7665 49.5522L53.8094 51.1308C52.6022 52.7094 51.6737 53.3594 50.0022 53.3594ZM60.7737 53.1737V47.9737C60.7737 46.7665 60.4022 46.4879 59.7522 46.4879C59.1022 46.4879 58.638 46.7665 58.638 47.9737V53.1737H55.4808V41.6594L58.638 40.3594V44.5379C59.2879 43.9808 60.1237 43.7022 60.9594 43.7022C63.0022 43.7022 63.9308 45.0951 63.9308 47.5094V53.1737H60.7737Z" fill="white"></path><path d="M71.5402 53.3594C67.9187 53.3594 65.9688 50.6665 65.9688 47.0451C65.9688 43.1451 68.2902 40.7308 71.5402 40.7308C74.5116 40.7308 75.7187 42.0308 76.5545 44.3522L73.4902 45.5594C73.0259 44.4451 72.6545 43.7022 71.5402 43.7022C70.1473 43.7022 69.4973 45.0951 69.4973 47.0451C69.4973 48.9951 70.0545 50.3879 71.5402 50.3879C72.6545 50.3879 73.0259 49.8308 73.7687 48.6237L76.6473 50.2022C75.7188 52.2451 73.6759 53.4522 71.5402 53.3594ZM84.3545 47.4165C83.983 46.9522 83.4259 46.6737 82.8687 46.6737C82.1259 46.6737 81.6616 47.0451 81.6616 48.1594V53.1737H78.5045V43.9808H81.6616V44.6308C82.5902 43.7022 83.983 43.5165 85.0973 44.1665L84.3545 47.4165ZM91.8759 53.1737V52.5237C91.2259 53.0808 90.3902 53.3594 89.5545 53.3594C87.5116 53.3594 86.583 51.9665 86.583 49.5522V43.9808H89.7402V49.1808C89.7402 50.3879 90.1116 50.6665 90.7616 50.6665C91.4116 50.6665 91.783 50.3879 91.783 49.1808V43.9808H94.9402V53.1737H91.8759ZM102.647 53.1737V47.9737C102.647 46.7665 102.276 46.4879 101.626 46.4879C100.976 46.4879 100.512 46.7665 100.512 47.9737V53.1737H97.3545V43.9808H100.512V44.6308C101.162 44.0737 101.997 43.7951 102.833 43.7951C104.876 43.7951 105.804 45.1879 105.804 47.6022V53.1737H102.647ZM111.933 53.3594C109.24 53.3594 107.569 51.6879 107.569 48.5308C107.569 45.7451 109.054 43.7951 111.933 43.7951C113.419 43.7951 114.812 44.5379 115.462 45.8379L113.326 47.5094C112.862 46.6737 112.583 46.3022 111.933 46.3022C111.283 46.3022 110.726 47.1379 110.726 48.5308C110.726 49.9237 111.19 50.7594 112.026 50.7594C112.583 50.7594 113.047 50.3879 113.604 49.5522L115.647 51.1308C114.626 52.7094 113.604 53.3594 111.933 53.3594ZM122.704 53.1737V47.9737C122.704 46.7665 122.333 46.4879 121.683 46.4879C121.033 46.4879 120.569 46.7665 120.569 47.9737V53.1737H117.412V41.6594L120.569 40.3594V44.5379C121.219 43.9808 122.054 43.7022 122.89 43.7022C124.933 43.7022 125.862 45.0951 125.862 47.5094V53.1737H122.704Z" fill="white"></path><path d="M52.2344 12.125V19.4607H59.5701V34.225H66.9058V19.4607H74.2415V12.125H52.2344ZM81.6701 26.7964V19.4607H74.3344V34.225H96.4344V26.8893L81.6701 26.7964ZM81.6701 12.125H96.4344V19.4607H81.6701V12.125Z" fill="white"></path></svg> 