<?xml version="1.0" encoding="UTF-8"?> <svg xmlns="http://www.w3.org/2000/svg" width="150" height="66" viewBox="0 0 150 66" fill="none"><path d="M2.06328 18.8815C2.00703 19.3877 1.98828 19.8002 2.00703 19.8377C2.02578 19.8564 2.47575 19.9314 3.01947 20.0064L3.97566 20.1189V28.6122V37.1241H3.39445C2.40076 37.1241 2.10078 37.4054 2.10078 38.3428V39.1865H8.62538H15.1687L15.075 36.5992C15.0375 35.193 14.9625 34.0118 14.9437 33.9743C14.925 33.9368 14.3063 33.8618 13.5938 33.8056L12.2814 33.6931L12.1502 34.893C12.0752 35.5492 11.9814 36.3742 11.9064 36.6929L11.8127 37.3116H9.8628H7.91292V33.2806V29.2496H8.75662C9.54407 29.2496 9.58157 29.2684 9.76906 29.9433C9.88155 30.3371 9.9753 30.7495 9.9753 30.8808C9.9753 31.0308 10.3128 31.1058 10.9127 31.087H11.8502V28.3872V25.6873H10.9502H10.0503L9.82531 26.531C9.60032 27.3747 9.60032 27.3747 8.75662 27.3747H7.91292V23.625V19.8752H9.88155H11.8502V20.7564C11.8502 21.2626 11.9064 21.9751 11.9627 22.35L12.0752 23.025L13.2938 23.1C13.9688 23.1375 14.5313 23.1188 14.5688 23.0625C14.5875 23.0063 14.6813 21.8438 14.7563 20.4752L14.8875 18.0003H8.51289H2.13827L2.06328 18.8815Z" fill="white"></path><path d="M32.4764 22.0098C32.4014 22.2535 32.2139 22.816 32.1014 23.266C31.8389 24.2784 31.5015 24.5596 30.564 24.5596H29.8516V25.4783C29.8516 26.4533 30.0391 26.622 31.1265 26.622H31.539V31.9092C31.539 37.7401 31.5952 38.0588 32.7201 38.8838C33.3763 39.3712 35.8324 39.54 37.1074 39.1837C37.8198 38.9775 37.9323 38.8838 37.8386 38.5463C37.7823 38.3213 37.7261 37.9651 37.7261 37.7213C37.7261 37.3464 37.6323 37.3089 36.7324 37.3089C35.0637 37.3089 35.1012 37.4401 35.1012 31.6467V26.6783L36.2449 26.5658C36.8636 26.5095 37.4074 26.4345 37.4261 26.397C37.4636 26.3783 37.5386 25.947 37.5761 25.4408L37.6886 24.5596H36.3949H35.1012V23.0597V21.5598H33.8826C32.7576 21.5598 32.6451 21.5973 32.4764 22.0098Z" fill="white"></path><path d="M22.6304 24.5249C22.1992 24.6937 21.5992 25.0311 21.2805 25.2561L20.6992 25.6873L20.5867 25.0311C20.4368 24.2999 20.418 24.2812 18.5994 24.5624C15.9183 24.9749 16.162 24.8624 16.162 25.7811V26.6248H17.0057H17.8494V32.062V37.4991H17.0995H16.3495V38.3428V39.1865H19.5181H22.6679L22.7804 38.4928C22.9304 37.6116 22.8366 37.4991 22.0492 37.4991H21.4117V32.4557C21.4117 28.1997 21.4492 27.3935 21.6929 27.1873C22.1054 26.8498 23.4928 26.756 24.0365 27.0373C24.8615 27.4685 24.9552 28.1997 24.9552 33.8806L24.974 39.1865H27.4113H29.8487V38.3616C29.8487 37.5366 29.8487 37.5179 29.155 37.4616L28.4425 37.4054L28.3488 31.9682L28.255 26.531L27.7113 25.7436C27.0176 24.6937 25.9489 24.1874 24.4865 24.2062C23.8865 24.2062 23.0429 24.3562 22.6304 24.5249Z" fill="white"></path><path d="M52.6138 24.6354C50.3077 25.7041 48.9766 28.2915 48.9766 31.7225C48.9766 34.4598 49.764 36.5972 51.2639 37.9846C52.5013 39.1283 53.4763 39.4283 55.5762 39.3345C57.3011 39.2595 58.4447 38.9221 59.3634 38.2096C59.6822 37.9659 59.6822 37.8721 59.4572 37.2534C59.1947 36.5035 59.0822 36.4472 58.5197 36.7659C57.8823 37.1034 56.1011 37.3097 55.2949 37.1409C54.9012 37.0472 54.32 36.7284 54.02 36.4472C53.42 35.8847 52.7263 34.2348 52.7263 33.3911C52.7263 32.8849 52.7638 32.8662 54.0013 32.7537C54.695 32.6787 56.3261 32.6224 57.6385 32.6224H60.0009L60.2071 32.06C60.4321 31.3663 60.2071 29.1539 59.7572 27.8602C59.4009 26.829 58.7635 25.7604 58.2385 25.2729C56.9448 24.1292 54.3387 23.8292 52.6138 24.6354ZM55.8761 26.6791C56.3824 27.204 56.8136 28.4414 56.9636 29.7164L57.0761 30.6913L56.4761 30.8226C56.1386 30.8788 55.1449 30.935 54.2637 30.935H52.6701L52.7826 29.7539C52.9326 28.1415 53.4388 26.6978 53.9263 26.4728C54.62 26.1353 55.4449 26.2103 55.8761 26.6791Z" fill="white"></path><path d="M62.3218 24.5254L60.3906 24.8066L60.4469 25.5753C60.5031 26.3252 60.5219 26.344 61.2531 26.4377L62.003 26.5315L62.0593 35.5122C62.0968 45.0741 62.1343 44.8116 61.2156 44.8116C60.8968 44.8116 60.7844 44.9241 60.7844 45.2241C60.7844 45.4678 60.7281 45.8428 60.6719 46.0678L60.5594 46.499H63.8592H67.159V45.6741C67.159 44.8679 67.159 44.8491 66.409 44.7366L65.6591 44.6241V41.8118C65.6591 40.2557 65.6778 38.9995 65.7153 38.9995C65.734 38.9995 66.0528 39.0932 66.409 39.2057C67.3652 39.4869 69.3901 39.4307 70.1963 39.112C71.1337 38.7182 72.1649 37.7808 72.5961 36.9371C73.1024 35.9622 73.5336 33.6186 73.5336 31.9312C73.5148 26.6815 72.0524 24.1879 68.9776 24.1879C67.7214 24.1879 66.8965 24.4504 65.9965 25.1441L65.3028 25.6878L65.0966 24.9378C64.8716 24.0941 65.0591 24.1129 62.3218 24.5254ZM68.6401 26.719C69.7088 27.2627 69.8775 28.0126 69.8775 31.9687C69.8588 36.4684 69.7276 36.9559 68.4339 37.1996C67.8902 37.3121 67.1777 37.3121 66.6527 37.1996L65.7528 37.0308L65.6966 32.3249C65.6591 27.8439 65.6778 27.6002 66.034 27.1315C66.5777 26.4377 67.7589 26.2503 68.6401 26.719Z" fill="white"></path><path d="M88.6096 24.4884C86.266 25.3133 84.7848 28.1069 84.7661 31.6879C84.7473 34.369 85.3473 36.1689 86.7534 37.6688C88.0284 39.0375 89.1158 39.4312 91.2344 39.3375C92.6593 39.2812 93.1468 39.1687 94.2155 38.6813C94.9092 38.3438 95.4717 37.9876 95.4717 37.8751C95.4717 37.6501 94.9467 36.5626 94.8342 36.5626C94.7967 36.5626 94.403 36.6939 93.953 36.8626C92.9218 37.2188 91.2532 37.2751 90.5032 36.9751C89.5095 36.5626 88.5721 34.894 88.5533 33.5441L88.5346 32.8691L90.0907 32.7566C90.9344 32.6816 92.5656 32.6254 93.728 32.6254H95.8279L95.9591 31.9504C96.1654 30.8817 95.9216 28.8944 95.4342 27.6194C94.5342 25.2196 93.0905 24.1696 90.7469 24.2071C89.997 24.2071 89.022 24.3384 88.6096 24.4884ZM91.5906 26.6257C92.1156 27.0382 92.5656 28.2569 92.7531 29.7381L92.8656 30.6942L92.1531 30.8067C91.7594 30.8817 90.7469 30.938 89.8845 30.938H88.3096L88.4221 30.413C88.4596 30.1318 88.5533 29.5693 88.6283 29.1568C88.8346 27.7882 89.2845 26.682 89.7157 26.4758C90.372 26.157 91.0657 26.2133 91.5906 26.6257Z" fill="white"></path><path d="M102.912 24.4499C102.537 24.5999 101.937 24.9186 101.581 25.1999L100.943 25.6873L100.812 25.1061C100.737 24.7874 100.568 24.4874 100.437 24.4499C100.212 24.3562 96.65 24.8249 96.5187 24.9561C96.4812 24.9936 96.4062 25.3686 96.3687 25.7811L96.3125 26.531L97.1562 26.6248L97.9999 26.7185L98.0186 29.6246C98.0186 31.2183 97.9811 33.6369 97.9437 35.0055L97.8499 37.4804L97.2687 37.5366C96.725 37.5929 96.6875 37.6491 96.6312 38.3803L96.575 39.1865H99.7623H102.968V38.3616C102.968 37.5366 102.968 37.5179 102.275 37.4616L101.562 37.4054L101.506 32.5682L101.468 27.731L101.918 27.281C102.687 26.5123 104.187 26.6623 104.712 27.5622C104.993 28.031 105.031 28.7809 105.031 33.6369V39.1865H107.562H110.093V38.3616C110.093 37.5366 110.093 37.5179 109.399 37.4616L108.687 37.4054L108.593 32.062C108.499 26.3248 108.462 26.1373 107.431 25.1811C106.418 24.2249 104.431 23.9062 102.912 24.4499Z" fill="white"></path><path d="M114.312 24.6418C111.95 25.7293 110.656 28.2604 110.656 31.7852C110.656 35.3287 112.194 38.1598 114.65 39.0972C116.018 39.6222 118.681 39.4347 120.106 38.7222C120.687 38.4223 121.212 38.1035 121.268 38.0285C121.381 37.841 120.949 36.5661 120.762 36.5661C120.706 36.5661 120.274 36.6974 119.824 36.8661C119.374 37.0348 118.475 37.1661 117.837 37.1848C116.862 37.2036 116.6 37.1286 116.018 36.6786C115.193 36.0599 114.65 35.0475 114.481 33.81L114.369 32.8726L115.812 32.7601C116.618 32.6851 118.268 32.6289 119.468 32.6289H121.681L121.906 32.0664C122.431 30.829 121.474 27.0979 120.274 25.673C119.037 24.2106 116.243 23.7232 114.312 24.6418ZM117.593 26.7792C118.175 27.3604 118.493 28.2416 118.662 29.7415L118.756 30.6977L118.043 30.8102C117.631 30.8852 116.656 30.9415 115.831 30.9415H114.35L114.462 29.854C114.612 28.1854 115.1 26.723 115.587 26.4792C116.337 26.123 117.031 26.2167 117.593 26.7792Z" fill="white"></path><path d="M125.095 24.3937C121.964 24.8062 122.283 24.6937 122.283 25.4999C122.283 26.2311 122.283 26.2311 123.089 26.2873L123.876 26.3436L123.97 31.5932C124.045 35.9992 124.12 36.9367 124.382 37.4054C125.132 38.7741 126.332 39.374 128.282 39.374C129.67 39.374 130.438 39.1115 131.226 38.3803C131.676 37.9866 131.638 37.9491 131.938 38.9053C132.013 39.149 132.369 39.1865 134.132 39.149L136.25 39.0928L136.307 38.2866L136.363 37.4991H135.613H134.863L134.807 31.0308C134.769 26.8498 134.676 24.5062 134.563 24.3937C134.413 24.2437 133.682 24.2812 132.126 24.4687C130.888 24.6187 129.82 24.7499 129.745 24.7499C129.651 24.7499 129.595 25.0874 129.595 25.4999V26.2498H130.438H131.282V31.2745C131.282 36.2992 131.282 36.318 130.851 36.7117C130.157 37.3491 128.788 37.2929 128.076 36.5804L127.532 36.0367V30.937C127.532 27.806 127.457 25.5374 127.326 25.0124C127.082 24.0937 127.176 24.1125 125.095 24.3937Z" fill="white"></path><path d="M40.5554 24.6562C39.6929 24.8061 38.9055 24.9936 38.8117 25.0874C38.718 25.1811 38.6617 25.5561 38.6992 25.8936C38.7555 26.4935 38.793 26.531 39.5617 26.5873L40.3491 26.6435V32.0807V37.4991H39.9367C39.2992 37.4991 39.1117 37.7054 38.9617 38.4741L38.8305 39.1865H42.1303H45.4113V38.4553C45.4113 37.6866 45.2051 37.4991 44.3614 37.4991H43.9114V32.3432V27.1873L44.3614 26.9998C45.4301 26.606 45.5051 26.6435 45.5988 27.7497L45.6926 28.7809L46.9112 28.8372L48.1487 28.8934L48.3549 26.8873C48.5424 25.1624 48.5236 24.8436 48.2799 24.5999C47.8674 24.1687 46.0301 24.4124 44.5676 25.1061C43.4615 25.6123 43.349 25.6311 43.349 25.3124C43.349 24.2999 43.1802 24.2624 40.5554 24.6562Z" fill="white"></path><path d="M76.4452 24.6562C75.6202 24.8061 74.8328 24.9186 74.7203 24.9186C74.5516 24.9374 74.4766 25.2374 74.4766 25.7811V26.6248H75.3203H76.164V31.9682C76.164 36.093 76.1077 37.3491 75.939 37.3866C75.8077 37.4429 75.4703 37.5179 75.189 37.5741C74.7203 37.6866 74.6641 37.7804 74.6641 38.4366V39.1865H77.9451H81.2262V38.4553C81.2262 37.6866 81.0199 37.4991 80.1762 37.4991H79.7262V32.3244V27.1685L80.3825 26.8873C80.7387 26.756 81.0762 26.6248 81.1137 26.6248C81.1699 26.6248 81.2636 27.131 81.3386 27.7497L81.4699 28.8747H82.6323C83.4948 28.8747 83.8322 28.7997 83.926 28.5934C83.9822 28.4434 84.076 27.5622 84.151 26.6248C84.2447 25.3874 84.226 24.8624 84.0385 24.6562C83.6448 24.1874 82.0699 24.2999 80.5887 24.9374C79.2388 25.5186 78.995 25.4811 78.9763 24.6937C78.9763 24.3187 78.6201 24.2999 76.4452 24.6562Z" fill="white"></path><path d="M139.344 24.5812C138.781 24.6749 138.031 24.8061 137.712 24.8624C137.112 24.9561 137.094 24.9936 137.094 25.7811V26.6248H137.844H138.594V32.062C138.594 37.2929 138.575 37.4991 138.237 37.4991C137.487 37.4991 137.281 37.7054 137.281 38.4553V39.1865H140.469H143.656V38.4553C143.656 37.7054 143.45 37.4991 142.718 37.4991C142.531 37.4991 142.325 37.3491 142.268 37.1616C142.156 36.7679 142.231 27.2248 142.362 27.131C142.662 26.906 143.525 26.6435 143.675 26.7185C143.768 26.7935 143.843 27.1685 143.843 27.5622C143.843 28.7809 143.937 28.8747 145.25 28.8747H146.412L146.637 26.8685C146.862 24.9936 146.843 24.8436 146.524 24.5999C146.037 24.2249 144.275 24.4312 142.981 25.0124C142.4 25.2749 141.856 25.4999 141.762 25.4999C141.687 25.4999 141.593 25.2749 141.556 24.9749C141.481 24.3749 141.031 24.2999 139.344 24.5812Z" fill="white"></path><path d="M145.397 37.407C144.91 37.7445 144.797 38.757 145.191 39.1507C145.529 39.4882 146.56 39.4132 146.897 39.0382C147.797 38.0445 146.485 36.6383 145.397 37.407ZM146.729 37.8008C147.047 38.6445 146.597 39.3194 145.829 39.1132C144.872 38.8695 145.079 37.5008 146.072 37.5008C146.391 37.5008 146.654 37.6133 146.729 37.8008Z" fill="white"></path><path d="M145.661 37.7991C145.454 38.0053 145.511 38.8115 145.717 38.8115C145.829 38.8115 145.904 38.7178 145.904 38.6053C145.904 38.4553 145.998 38.474 146.204 38.6428C146.467 38.849 146.486 38.8115 146.429 38.3428C146.373 37.8178 145.942 37.5179 145.661 37.7991ZM146.186 38.0616C146.242 38.1553 146.204 38.2491 146.111 38.2491C145.998 38.2491 145.904 38.1553 145.904 38.0616C145.904 37.9491 145.942 37.8741 145.979 37.8741C146.036 37.8741 146.129 37.9491 146.186 38.0616Z" fill="white"></path></svg> 