<?xml version="1.0" encoding="UTF-8"?> <svg xmlns="http://www.w3.org/2000/svg" width="150" height="66" viewBox="0 0 150 66" fill="none"><g clip-path="url(#clip0_2098_20073)"><path d="M42.975 0.242188H107.055C107.025 25.9454 107.055 39.5093 107.055 65.2422H42.9453V0.242188M81.233 8.13716C80.1051 8.61205 79.0366 9.26502 78.1759 10.1554C77.1371 11.2239 76.4544 12.5892 76.1576 14.0436C75.9499 14.9636 75.8905 15.8837 75.9202 16.8038C75.9202 27.4591 75.9202 38.0847 75.9202 48.7399C75.8905 50.1349 76.0983 51.5892 76.6325 52.8952C77.0184 53.8746 77.6417 54.7947 78.4133 55.507C79.6302 56.6942 81.233 57.4066 82.8654 57.8518C84.6165 58.3267 86.427 58.5047 88.2376 58.5344C89.9887 58.5641 91.7398 58.4454 93.4316 58.0299C94.7672 57.7034 96.0732 57.1395 97.1417 56.2787C98.1805 55.4477 98.9522 54.3198 99.3974 53.0436C99.8723 51.7079 100.05 50.2833 100.05 48.8883C100.05 44.7627 100.05 40.6372 100.05 36.5116C96.6668 36.5116 93.3129 36.5116 89.9293 36.5116C89.9293 40.6668 89.9293 44.8518 89.9293 49.007C89.9293 49.5116 89.9293 50.0458 89.7512 50.5207C89.5435 50.9956 89.0092 51.2627 88.5047 51.2924C88.0001 51.3221 87.4362 51.2924 87.08 50.9066C86.7239 50.5504 86.6348 50.0162 86.6051 49.5413C86.6051 38.3518 86.6051 27.1623 86.6051 16.0025C86.6051 15.5869 86.6645 15.1714 86.9019 14.8449C87.1691 14.4294 87.6439 14.2216 88.1188 14.2216C88.6234 14.192 89.217 14.3107 89.5435 14.7262C89.8997 15.1714 89.9293 15.7947 89.9293 16.3289C89.9293 18.4659 89.9293 20.6029 89.9293 22.7696C89.9293 24.402 89.8997 26.0344 89.9293 27.6965C93.3129 27.6965 96.6668 27.6965 100.05 27.6965C100.05 23.9271 100.05 20.128 100.05 16.3586C100.05 14.8746 99.8129 13.3906 99.249 12.0253C98.7741 10.9568 98.0914 10.007 97.1713 9.2947C96.1325 8.43397 94.8563 7.89972 93.58 7.54356C91.9773 7.12803 90.2855 6.97963 88.6234 6.97963C86.1006 6.94995 83.5481 7.18739 81.233 8.13716ZM49.9796 7.30611C49.9796 24.313 49.9796 41.3198 49.9796 58.3267C53.5412 58.3267 57.1028 58.3267 60.6645 58.3267C60.6645 52.7171 60.6645 47.1075 60.6645 41.4979C60.6645 40.5184 60.6348 39.539 60.6645 38.5595C61.1394 38.5595 61.6439 38.5595 62.1188 38.5595C63.306 38.5595 64.4933 38.5892 65.6508 38.4705C66.8677 38.3221 68.0846 38.055 69.2124 37.5504C69.9841 37.1942 70.7261 36.7194 71.3197 36.0961C72.3289 35.1166 72.9522 33.8404 73.2786 32.5047C73.6348 31.1691 73.6645 29.7742 73.6645 28.3792C73.6645 24.6394 73.6645 20.87 73.6645 17.1303C73.6645 16.1212 73.6348 15.1121 73.4864 14.1029C73.2193 12.5002 72.6257 10.9271 71.4978 9.7399C70.6668 8.81981 69.5389 8.19653 68.3814 7.81068C66.7193 7.24675 64.9681 7.09835 63.2467 7.12803C58.854 7.12803 54.4316 7.12803 50.0389 7.12803C50.0092 7.18739 49.9796 7.27643 49.9796 7.30611Z" fill="white"></path><path d="M60.6694 14.5156C61.5005 14.5156 62.3909 14.5453 63.1329 14.9905C63.6078 15.2576 63.8749 15.7622 63.9936 16.2964C64.1124 16.8307 64.0827 17.3649 64.1124 17.8992C64.1124 21.2531 64.1124 24.6366 64.1124 27.9905C64.1124 28.7325 64.1124 29.5042 63.7265 30.1275C63.3704 30.7211 62.658 30.9882 62.0051 31.0773C61.5599 31.1366 61.1146 31.1663 60.6694 31.1663C60.6398 27.2782 60.6694 23.3901 60.6694 19.5019C60.6694 17.8398 60.6398 16.1777 60.6694 14.5156Z" fill="white"></path><path d="M81.234 8.13877C83.5788 7.189 86.1016 6.95156 88.6244 6.92188C90.2865 6.92188 91.9486 7.07028 93.581 7.4858C94.887 7.84197 96.1336 8.37621 97.1724 9.23694C98.0925 9.94927 98.7751 10.9287 99.25 11.9675C99.8436 13.3328 100.051 14.8169 100.051 16.3009C100.051 20.0703 100.051 23.8694 100.051 27.6388C96.6678 27.6388 93.3139 27.6388 89.9304 27.6388C89.9007 26.0064 89.9304 24.3739 89.9304 22.7118C89.9304 20.5748 89.9304 18.4379 89.9304 16.2712C89.96 15.7073 89.9304 15.1137 89.5445 14.6684C89.1884 14.2529 88.6244 14.1342 88.1199 14.1639C87.645 14.1639 87.1404 14.3716 86.903 14.7872C86.6655 15.1137 86.6062 15.5589 86.6062 15.9447C86.6062 27.1342 86.6062 38.3237 86.6062 49.4835C86.6358 49.9584 86.6952 50.4927 87.081 50.8488C87.4372 51.2347 88.0308 51.2643 88.5057 51.2347C89.0103 51.205 89.5445 50.9379 89.7523 50.463C89.96 49.9881 89.96 49.4835 89.9304 48.9493C89.9304 44.794 89.9304 40.6091 89.9304 36.4538C93.3139 36.4538 96.6678 36.4538 100.051 36.4538C100.051 40.5794 100.051 44.705 100.051 48.8306C100.051 50.2255 99.903 51.6502 99.3984 52.9858C98.9532 54.2324 98.1815 55.3899 97.1427 56.221C96.0742 57.0817 94.7683 57.6456 93.4326 57.9721C91.7409 58.4173 89.9897 58.5063 88.2386 58.4767C86.4281 58.447 84.6176 58.2689 82.8664 57.794C81.234 57.3488 79.6313 56.6365 78.4144 55.4493C77.6427 54.7073 77.0194 53.8169 76.6336 52.8374C76.0993 51.5315 75.8915 50.1068 75.9212 48.6821C75.9212 38.0269 75.9212 27.4013 75.9212 16.7461C75.8915 15.826 75.9509 14.8762 76.1587 13.9858C76.4555 12.5315 77.1381 11.1365 78.1769 10.0977C79.0377 9.26662 80.1062 8.61366 81.234 8.13877Z" fill="#051F4E"></path><path d="M49.9828 7.30823C49.9828 7.27855 50.0125 7.18951 50.0125 7.15983C54.4052 7.18951 58.8276 7.15983 63.2203 7.15983C64.9417 7.13015 66.7225 7.27855 68.355 7.84248C69.5125 8.22833 70.6403 8.88129 71.4714 9.7717C72.5992 10.9589 73.1929 12.532 73.46 14.1347C73.6381 15.1439 73.6677 16.153 73.6381 17.1621C73.6381 20.9018 73.6381 24.6712 73.6381 28.411C73.6677 29.7763 73.6084 31.1712 73.2522 32.5365C72.9257 33.8722 72.3024 35.1781 71.2933 36.1279C70.6997 36.7512 69.9577 37.226 69.186 37.5822C68.0581 38.0868 66.8413 38.3539 65.6244 38.5023C64.4371 38.6507 63.2796 38.5913 62.0924 38.5913C61.6175 38.5913 61.1129 38.5913 60.6381 38.5913C60.6084 39.5708 60.6381 40.5502 60.6381 41.5297C60.6381 47.1393 60.6381 52.7489 60.6381 58.3585C57.0764 58.3585 53.5148 58.3585 49.9531 58.3585C49.9828 41.3219 49.9828 24.3151 49.9828 7.30823ZM60.6677 14.5206C60.6381 16.1827 60.6677 17.8448 60.6677 19.5069C60.6677 23.395 60.6677 27.2831 60.6677 31.1712C61.1129 31.2009 61.5581 31.1712 62.0034 31.0822C62.6563 30.9932 63.3687 30.726 63.7248 30.1324C64.1107 29.5091 64.1403 28.7078 64.1107 27.9955C64.1107 24.6416 64.1107 21.258 64.1107 17.9041C64.1107 17.3699 64.1403 16.806 63.9919 16.3014C63.8732 15.7968 63.6061 15.2626 63.1312 14.9955C62.3892 14.5799 61.4988 14.5206 60.6677 14.5206Z" fill="#051F4E"></path></g><defs><clipPath id="clip0_2098_20073"><rect width="64.1096" height="65" fill="white" transform="translate(42.9453 0.572266)"></rect></clipPath></defs></svg> 