<?xml version="1.0" encoding="UTF-8"?> <svg xmlns="http://www.w3.org/2000/svg" width="150" height="66" viewBox="0 0 150 66" fill="none"><g clip-path="url(#clip0_2098_20079)"><path d="M144.848 23.3498C143.856 26.7083 141.94 28.3135 139.549 28.3135H137.304V23.3498H136.634C135.612 26.2408 134.183 27.8472 131.792 28.7226V29.4232H133.95V38.7968C133.95 41.6295 134.855 42.7987 137.1 42.7987C138.674 42.7987 139.871 41.9804 140.716 40.3449L140.891 39.9952L140.395 39.7317C139.842 40.4626 139.317 40.8123 138.762 40.8123C137.654 40.8123 137.304 40.1117 137.304 37.9796V29.4232H142.195V38.7968C142.195 41.6586 143.099 42.7987 145.344 42.7987C147.094 42.7987 148.435 41.7752 149.339 39.7317L148.845 39.4683C148.115 40.4626 147.619 40.8123 146.977 40.8123C145.899 40.8123 145.52 40.0534 145.52 37.9796V29.4232H148.845V28.3135H145.52V23.3498H144.848ZM40.4302 39.0894C40.4302 41.366 40.7799 41.9512 42.1787 41.9804V42.5061H35.5889V41.9804C36.7838 41.9513 37.0764 41.366 37.0764 39.0894V32.4891C37.0764 30.5633 36.7838 29.949 35.8512 29.949C35.6764 29.949 35.5306 29.9781 35.2392 30.0947L35.0935 29.5701L39.7879 27.8763H40.4302V31.0005C41.9759 28.9266 43.5788 27.8763 45.1548 27.8763C47.7789 27.8763 48.9458 29.5701 48.9458 33.3366V39.2946C48.9458 41.3381 49.3538 41.9512 50.7526 41.9804V42.5061H43.8714V41.9804C45.3005 41.8055 45.6211 41.2798 45.6211 39.1185V33.628C45.6211 31.0296 45.1245 30.1238 43.6674 30.1238C42.5879 30.1238 41.5376 30.7673 40.4302 32.0811V39.0894ZM83.9022 21.8018H83.2308L78.4478 23.6121L78.5935 24.1087L78.857 24.0504C79.061 23.9921 79.3233 23.9631 79.4398 23.9631C80.257 23.9631 80.5473 24.6345 80.5473 26.4449V39.5569C80.5473 41.3673 80.1101 41.9513 78.7695 41.9804V42.5062H85.7103V41.9804C84.3673 41.9513 83.9022 41.309 83.9022 39.5569V21.8018ZM95.3146 28.022V32.7234H94.7026C94.0615 29.9781 93.1569 28.9849 91.3197 28.9849C90.0654 28.9849 89.2494 29.5993 89.2494 30.5621C89.2494 31.5262 89.8905 32.1685 92.194 33.5406C95.4603 35.4978 96.3649 36.5784 96.3649 38.4762C96.3649 41.0163 94.206 42.9433 91.2906 42.9433C90.5317 42.9433 90.182 42.885 88.6071 42.5061C88.4613 42.4478 88.3448 42.4478 88.1699 42.4478C87.9659 42.4478 87.7911 42.5061 87.4996 42.7101H86.8865V37.483H87.3819C88.0825 40.4906 89.2494 41.8055 91.2311 41.8055C92.5146 41.8055 93.4192 40.9872 93.4192 39.8483C93.4192 38.6802 93.4192 38.6802 90.182 36.5493C87.3248 34.6503 86.799 33.9789 86.799 32.1102C86.799 29.5993 88.6654 27.8763 91.4071 27.8763C91.9608 27.8763 92.2231 27.9054 92.8934 28.1095C93.594 28.2843 93.8272 28.3426 94.0615 28.3426C94.3238 28.3426 94.4975 28.2564 94.7901 28.022H95.3146ZM116.509 21.8018H115.838L111.084 23.6121L111.201 24.1087C111.726 23.9921 111.871 23.963 112.046 23.963C112.834 23.963 113.184 24.7219 113.184 26.4448V39.5568C113.184 41.3089 112.689 41.9512 111.376 41.9804V42.5061H118.317V41.9804C116.974 41.9513 116.509 41.3381 116.509 39.5568V21.8018ZM127.019 34.1537C123.023 35.9653 122.323 36.5784 122.323 38.2419C122.323 39.6151 123.227 40.5489 124.481 40.5489C125.356 40.5489 126.027 40.1992 127.019 39.2643V34.1537ZM126.873 40.4626L126.523 40.8123C124.919 42.3313 123.782 42.9433 122.527 42.9433C120.515 42.9433 119.028 41.366 119.028 39.2643C119.028 36.7533 120.662 35.4978 127.019 33.1326V32.1102C127.019 29.7158 126.406 28.8101 124.714 28.8101C123.401 28.8101 122.615 29.541 122.615 30.7673C122.615 30.8547 122.615 31.0296 122.644 31.2348V31.6719C122.644 32.5485 122.032 33.1326 121.127 33.1326C120.224 33.1326 119.582 32.4611 119.582 31.5262C119.582 29.4524 122.061 27.8763 125.385 27.8763C129.176 27.8763 130.342 28.9849 130.342 32.5777V38.9437C130.342 41.3381 130.722 41.9512 132.151 41.9804V42.5061H128.593C127.193 42.5061 127.019 42.3313 127.019 40.9872V40.3449L126.873 40.4626ZM101.721 31.6719C102.509 30.8839 103.296 30.5039 104.172 30.5039C106.271 30.5039 107.73 32.7817 107.73 36.0818C107.73 39.41 106.359 41.7461 104.405 41.7461C103.529 41.7461 102.83 41.4255 101.721 40.55V31.6719ZM101.721 21.8018H101.109L96.3265 23.5538L96.5013 24.0796C96.7636 23.9922 96.9396 23.963 97.1436 23.963C98.1065 23.963 98.4259 24.5762 98.4259 26.4448V41.2798C100.643 42.5061 102.014 42.9433 103.704 42.9433C107.934 42.9433 111.054 39.4986 111.054 34.8252C111.054 30.7953 108.926 27.8763 106.038 27.8763C104.58 27.8763 103.151 28.6644 102.189 30.0073L101.867 30.4456L101.721 30.6496V21.8018ZM74.784 32.636C74.6371 30.2999 73.7336 29.0724 72.1588 29.0724C70.5256 29.0724 69.4181 30.3873 69.2433 32.636H74.784ZM78.2531 37.5425C77.1748 41.3089 75.4251 42.9433 72.4513 42.9433C68.8353 42.9433 66.4141 40.0243 66.4141 35.7018C66.4141 31.1462 69.1267 27.8763 72.9176 27.8763C76.1828 27.8763 78.0503 29.8907 78.2531 33.7166H69.185C69.4764 37.7173 71.2262 40.1117 73.8211 40.1117C75.5428 40.1117 76.796 39.2351 77.7868 37.3082L78.2531 37.5425ZM60.8035 39.7317C59.7543 40.4626 59.1423 40.7249 58.4709 40.7249C56.3423 40.7249 54.8548 38.1557 54.8548 34.4755C54.8548 31.0879 55.9634 28.9849 57.6828 28.9849C59.7835 28.9849 60.8035 30.5039 60.8035 33.6571V39.7317ZM64.1572 21.8018H63.4578L58.7331 23.583L58.908 24.0796C59.3172 23.963 59.4326 23.9339 59.6377 23.9339C60.5412 23.9339 60.8035 24.4887 60.8035 26.474V29.0152C59.6669 28.1386 58.908 27.8763 57.6245 27.8763C54.0679 27.8763 51.2679 31.3222 51.2679 35.7601C51.2679 39.9952 53.4851 42.9433 56.6628 42.9433C58.1794 42.9433 58.7926 42.6227 60.8035 40.8998C60.8035 42.3604 60.9503 42.5061 62.3784 42.5061H65.9653V41.9804C64.3916 41.9513 64.1572 41.5129 64.1572 38.6511V21.8018ZM29.8233 34.1537C26.0032 35.8184 25.0998 36.6076 25.0998 38.2419C25.0998 39.5848 26.0324 40.5489 27.2867 40.5489C28.1027 40.5489 28.8033 40.1992 29.8233 39.2643V34.1537ZM29.8233 40.3449C29.6484 40.4906 29.6193 40.5197 29.2987 40.8123C27.5781 42.4175 26.5872 42.9433 25.3038 42.9433C23.3197 42.9433 21.8043 41.3381 21.8043 39.206C21.8043 36.7533 23.5832 35.4395 29.8233 33.1326V32.1102C29.8233 29.745 29.1821 28.8101 27.5198 28.8101C26.2072 28.8101 25.4192 29.541 25.4192 30.7673C25.4192 30.8839 25.4192 31.0296 25.4483 31.2348V31.6719C25.4483 32.5194 24.8374 33.1326 23.9328 33.1326C23.0282 33.1326 22.3871 32.4891 22.3871 31.5553C22.3871 29.4232 24.8654 27.8763 28.1901 27.8763C31.9518 27.8763 33.177 29.0152 33.177 32.5777V38.9437C33.177 41.4546 33.4101 41.9512 34.6353 41.9804V42.5061H31.3981C29.9981 42.5061 29.8232 42.3313 29.8232 40.9872L29.8233 40.3449ZM15.542 32.5485V39.1768C15.542 41.3672 15.1352 41.8347 13.0929 41.893V42.5061H21.6667V41.893C19.5673 41.8056 19.2175 41.3672 19.2175 38.7385V25.2476C19.2175 23.1155 19.6547 22.5327 21.2587 22.4441L21.6667 22.415V21.8018H13.0929V22.415C15.1643 22.5036 15.542 22.9116 15.542 24.9271V31.2628H6.76532V25.0728C6.76532 22.9699 7.2899 22.3858 9.2145 22.415V21.8018H0.640625V22.415C2.50694 22.3859 3.09097 23.0281 3.09097 25.0728V38.7386C3.09097 41.3964 2.74125 41.8347 0.640625 41.893V42.5062H9.2145V41.893C7.17332 41.9513 6.76532 41.4838 6.76532 39.1186V32.5486L15.542 32.5485Z" fill="white"></path></g><defs><clipPath id="clip0_2098_20079"><rect width="149.986" height="22.41" fill="white" transform="translate(0 21.499)"></rect></clipPath></defs></svg> 