<?xml version="1.0" encoding="UTF-8"?> <svg xmlns="http://www.w3.org/2000/svg" width="151" height="66" viewBox="0 0 151 66" fill="none"><path d="M40.2266 1.57227H0.921875V64.5723H40.2266V1.57227Z" fill="white"></path><path d="M40.2545 5.93231L30.4733 28.3351L39.7945 36.6161L29.0932 37.3562L29.0331 47.9775L22.5323 41.2967L0.929688 60.6191L11.891 38.4963L1.88981 38.9964L13.4912 28.6551L1.38974 5.57227L22.0723 21.8543L40.2545 5.93231Z" fill="#051F4E"></path><path d="M100.127 32.3738H95.3465C95.8066 29.1935 97.5068 28.2733 98.7269 28.2733C100.527 28.2733 100.747 30.0736 100.127 32.3738ZM117.409 44.9954L119.95 32.9939C121.15 31.6938 124.13 31.5937 126.15 32.3738L127.831 24.3929C124.67 23.7328 122.85 25.333 120.91 27.7333L121.57 24.5929H112.729L108.388 45.0554H117.389L117.409 44.9954ZM69.6433 30.2136H72.4037L70.7435 37.5745C69.5833 42.6751 71.8036 45.2954 77.5843 45.2954C79.4646 45.2954 81.8248 45.0754 83.145 44.6554L84.2251 39.5347C83.5251 39.7347 82.805 39.8348 82.0849 39.8348C79.1245 39.8348 79.4646 38.3546 79.8246 36.6544L81.2448 30.2736H85.6853L86.7454 25.293H82.3449L83.5651 19.5723H75.9041C74.704 24.2728 74.1239 25.533 70.6435 25.533L69.6433 30.2136ZM47.6406 43.5352C50.0409 44.8554 52.6012 45.3554 56.3617 45.3554C62.3424 45.3554 66.963 43.2552 66.963 38.0545C66.963 34.7141 64.8628 33.294 61.9224 32.2538C59.8221 31.4937 58.2619 31.0737 58.2619 30.2536C58.2619 29.6135 59.082 29.4535 60.0822 29.4535C62.4024 29.4535 65.1828 30.2336 67.083 31.1537L68.2832 25.773C65.6829 24.6729 62.8625 24.1128 60.0422 24.1328C54.0014 24.1328 49.9609 26.4931 49.9609 31.3537C49.9609 35.0942 52.4612 36.4543 54.7015 37.2344C57.2018 38.0945 58.442 38.3146 58.442 39.1547C58.442 39.8348 57.7219 40.0548 56.6217 40.0548C54.1014 40.0548 51.021 38.9747 48.9208 37.7145L47.6406 43.5352ZM106.248 38.4346C102.927 39.6147 94.1864 41.3149 94.6464 36.5744H107.188C107.748 34.9942 108.128 33.294 108.128 31.6938C108.128 27.0332 104.868 24.0928 99.347 24.0928C91.8661 24.0928 86.2254 29.3935 86.2254 36.5744C86.2254 42.1751 89.7058 45.4155 96.8867 45.4155C99.627 45.4355 102.347 44.9754 104.928 44.0553L106.248 38.4346ZM139.112 44.9954H148.073L150.593 32.9539C150.833 31.8738 150.953 30.7936 150.973 29.6935C150.973 26.2931 149.473 24.2528 145.493 24.2528C142.112 24.2528 140.012 25.673 138.552 27.1532L139.112 24.5529H130.251L125.91 45.0154H134.871L137.672 31.7738C138.212 30.8737 139.192 30.3136 140.252 30.3336C141.392 30.3336 142.052 30.9737 141.752 32.3738L139.112 44.9954Z" fill="white"></path></svg> 